#tb 0: 1/25
0,          0,          0,        1,   301056, 16fddab8a093730a98394234e2cfd39d
0,          1,          1,        1,   301068, d9eca93b47feb9b157509686253b588d
0,          2,          2,        1,   300844, 8d360d038ee45975061a3b5cfea0f76f
0,          3,          3,        1,   300904, 109420862f1e7923ed1e8b1756562fe1
0,          4,          4,        1,   300912, 51ee9a75c2bb8e0a67909fc1cd9fa1f2
0,          5,          5,        1,   300936, 7e94181f755e5be96e88b4739bff43f0
0,          6,          6,        1,   300944, cdd1bc438693038196e034d3674cec2e
0,          7,          7,        1,   301044, d504326bed6aaaf078944fed43c85a64
0,          8,          8,        1,   301080, aaeff1e9f961a4eb92590ca8521864ed
0,          9,          9,        1,   301044, ba37977e1411497f3539b19559b3d5cd
0,         10,         10,        1,   300944, b99ecf4877e735fc99d698d55f7fa6c0
0,         11,         11,        1,   300912, d804f669f681eeb1093033288403edb8
0,         12,         12,        1,   301048, cf9fb69bd1b4556f8d021ba1f36122ab
0,         13,         13,        1,   300964, 631724c93959570619a01de5728fb5ba
0,         14,         14,        1,   300868, 036d5880f9bb43dfd8475b58bd39e818
0,         15,         15,        1,   300880, 719f004dca44602d1eced2aa33e20278
0,         16,         16,        1,   301020, c7da77d6ff794c8b0e921f5e31dd1174
0,         17,         17,        1,   301076, c890504084316eeced27e3b1363fa955
0,         18,         18,        1,   301192, bb0dae1f108bd07eaacdc11b7e9ae064
0,         19,         19,        1,   301228, 26d9305b99b063f2c1ff7224f5c3bc3d
0,         20,         20,        1,   301180, fcfabb91547c5fe81318684c6c8f9125
0,         21,         21,        1,   301180, 6680360f572c4d83ff831ecf07e9a314
0,         22,         22,        1,   301116, 5ff83a1f27cce2b194ff568e43ee347c
0,         23,         23,        1,   301060, 80466ff8cfaac1b88b7e3236117e19b7
0,         24,         24,        1,   301132, 7bc63a1e87ec3aaab981dabe83b8704c
0,         25,         25,        1,   301144, 47f57cdcc4a2ad0c8dd1e8de116c0567
0,         26,         26,        1,   301088, e0c17cd6bda91508ba76fe515ca1049c
0,         27,         27,        1,   301232, c02d667805bf4c064b4e28a8994e49ae
0,         28,         28,        1,   301152, ac8f1a611e7b70efd3093474f65483d1
0,         29,         29,        1,   301224, 79038baba3dca1bc0e64ed74fe6f7b97
0,         30,         30,        1,   301224, 2daa40534dd3a50c13b04d1cf509f28b
0,         31,         31,        1,   301160, 11179bb8304b07854d251e83a4b82d83
0,         32,         32,        1,   301120, 296ae4ff30abc4ef34be1d8a6c025ddb
0,         33,         33,        1,   301100, 3ff85950d03159f6d86489ae88c45e7c
0,         34,         34,        1,   301000, 32e7d1a9cd293b21be0dd4dc37e93a7a
0,         35,         35,        1,   301156, 73c1c8cf26690283eb34bd8cd60e6e5b
0,         36,         36,        1,   301232, 8c0bd92cda79f22c66c9732a6caaafc8
0,         37,         37,        1,   301228, d661dfca51ca9ea79b9712d6f9d97437
0,         38,         38,        1,   301296, 0b26c18a4b1ad60e150beabbb1576e12
0,         39,         39,        1,   301296, 7975b6ccf5a08524bd2cb6a810a444a5
0,         40,         40,        1,   301308, a80739008309fb1941a54189860a1683
0,         41,         41,        1,   301268, 3066dd46ff962c2f6438a97c288ef1d2
0,         42,         42,        1,   301344, 0069bb6b069ff6af3081017f1fdb896c
0,         43,         43,        1,   301308, f94eacab194d54cfedcc5258d9ddf037
0,         44,         44,        1,   301292, cb272181cebccc7c3dd64bcf7b49346f
0,         45,         45,        1,   301344, 1a0d39b0c3f63dc53e62780f875e2f9e
0,         46,         46,        1,   301432, 42fcb42f65050c4e261a147e49b851a7
0,         47,         47,        1,   301440, 90f5c3e79c34777174b0eec0ae7bbd50
0,         48,         48,        1,   301460, eea061bdda0964daa227164d06db6feb
0,         49,         49,        1,   301444, 6a9bcc9cecab9f43b7bb2c2110853320
